# xmcd
#
# Track frame offsets:
#	150
#	18098
#	33053
#	45233
#	61803
#	77475
#	90700
#	108925
#	124880
#	143310
#	157335
#	172923
#
# Disc length: 2459 seconds
#
# Revision: 0
# Processed by: cddbd v1.4b42PL1 Copyright (c) Steve Scherf et al.
# Submitted via: audiograbber 1.80
#
DISCID=8009990c
DTITLE=Oak Ridge Boys, The - American Harmony Disc 2
DYEAR=1900
DGENRE=
TTITLE0=Everyday
TTITLE1=Ozark Mountain Jubilee
TTITLE2=American Made
TTITLE3=Fancy Free
TTITLE4=Little Things
TTITLE5=Bobbie Sue
TTITLE6=I Guess It Never Hurts To Hurt Sometimes
TTITLE7=Touch A Hand Make A Friend
TTITLE8=Make My Life With You
TTITLE9=Love Song
TTITLE10=Down Deep Inside
TTITLE11=Thank God For Kids
EXTD=
EXTT0=
EXTT1=
EXTT2=
EXTT3=
EXTT4=
EXTT5=
EXTT6=
EXTT7=
EXTT8=
EXTT9=
EXTT10=
EXTT11=
PLAYORDER=
